<?xml version="1.0" encoding="UTF-8"?>
<svg id="Layer_2" data-name="Layer 2" xmlns="http://www.w3.org/2000/svg" viewBox="0 0 540.43 798.62">
  <defs>
    <style>
      .cls-1 {
        fill: #f5f5f5;
      }

      .cls-2 {
        fill: #fbdb74;
      }

      .cls-3 {
        fill: #52779a;
      }

      .cls-4 {
        fill: #0a0a08;
      }
    </style>
  </defs>
  <g id="Layer_1-2" data-name="Layer 1">
    <g>
      <path class="cls-4" d="M526.62,630.31c-3.09-1.34-3.89-2.79-3.88-5.85,.09-24.43-3.08-48.53-9.61-71.99-7.87-28.3-16.98-56.25-25.4-84.39-7.31-24.45-11.17-49.5-9.1-74.96,1.79-21.91,5.28-43.67,7.8-63.77,2.96-3.52,5.88-5.7,7.03-8.58,4.68-11.83,8.88-23.84,13.11-35.83,1.52-4.29,.23-7.52-4.12-9.61-4.27-2.04-8.15-4.97-12.53-6.65-4.57-1.76-6.09-4.95-6.52-9.29-2.1-20.76-6.95-40.92-14.08-60.48-18.21-49.92-47.99-90.73-94.23-118.4-2.27-1.35-4.39-2.95-6.58-4.43,.29-.57,.57-1.14,.86-1.71l19.66,7.71c.31-.47,.63-.95,.94-1.43-1.2-1.23-2.2-3.15-3.64-3.59-10.67-3.26-21.45-6.19-32.17-9.29-4.31-1.24-8.59-2.62-12.88-3.94,.2-.65,.39-1.3,.58-1.95,15.41,.89,30.06,5.27,44.8,10.42-1.28-2.06-2.81-3.77-4.7-4.82-14.71-8.15-30.37-10.83-47.1-8.8-5.23,.64-10.68-.65-16.04-1.06,.06-.74,.12-1.48,.17-2.22,21.91-10.02,42.38-2.56,63.24,6.1-.55-1.48-.62-2.7-1.27-3.27-17.45-15.34-46.55-18.14-63.49-4.89-1.72,1.34-4.22,1.68-6.35,2.49-.27-.58-.54-1.16-.82-1.74,9.6-16.44,24.23-27.08,40.99-35.34-22.51,2.47-38.03,14.48-46.75,35.23l-24.56-2.69,24.63-27.01c-12.37,4.38-20.16,11.7-24.42,22.22-2.19,5.39-5.23,6.03-10.4,4.48,3.75-18.4,12.81-34.47,21.04-50.98-2.49,1.51-4.37,3.35-6.11,5.31-10.3,11.67-14.8,25.89-17.98,40.73-.44,2.02-2.01,3.79-3.05,5.68-1.07-2.11-2.5-4.12-3.16-6.35-2.36-8.05-4.34-16.22-6.74-24.26-.5-1.66-2.21-2.97-3.37-4.44-.34,.26-.68,.52-1.02,.79l8.35,34.17h-7.75c.4-.37,.8-.75,1.2-1.12l-12.47-16.75c.34,1.83,.34,3.81,1.09,5.44,1.98,4.35,4.29,8.55,6.6,13.07-10.23,2.15-10.18,2.13-14.44-5.69-7.26-13.3-18.37-21.97-32.74-26.33-4.03-1.23-8.39-1.35-12.6-1.98,18.6,7.36,38.07,23.45,42.83,36.91-1.68,.1-3.22,.2-4.77,.29-1.54,.77-3.08,1.55-4.63,2.32-4.45,.43-8.91,1.19-13.36,1.2-5.75,.02-11.5-.93-17.24-.83-10.71,.19-24.39,4.73-31.46,10.55l41.21-7.56c.21,.87,.43,1.73,.64,2.59-19.04,6.32-40.32,6.7-56.52,20.76l20-5.92,.63,1.89c-1.61,1.15-3.29,2.21-4.82,3.46-11.8,9.61-24.56,18.3-35.19,29.08-39.05,39.59-59.39,88.28-66.7,142.84-.85,6.37-2,11.75-9.25,13.99-3.85,1.19-7.21,3.93-10.85,5.85-3.91,2.05-5.13,4.84-3.55,9.15,4.32,11.76,8.2,23.68,12.75,35.34,1.21,3.11,4.17,5.54,6.33,8.29,2.91,15.02,3.55,31.19,6.54,46.91,4.61,24.2,3.64,48.15-1.84,71.72-4.87,20.97-11.74,41.49-18.21,62.05-11.83,37.6-21.98,75.47-21.46,115.33,.05,3.16-1.06,4.4-4,5.77C4.76,634.41-.1,641.56,0,651.78c.1,9.54,4.55,17.29,9.45,25.03,1.49,2.35,2.22,5.5,2.37,8.33,.72,14.02,1.74,27.98,7.27,41.11,5.23,12.41,15.06,18.34,27.23,16.55,2.61-.38,5.13-1.26,7.9-1.96,5.92,9.06,13.08,16.56,24.97,14.89,12.55-1.76,16.34-11.76,18.83-22.25,22.77-3.24,34.03-24.39,26.05-49.58,2.02,.89,3.61,1.58,5.18,2.29,10.67,4.81,21.23,9.9,32.07,14.28,4.02,1.63,5.61,3.2,5.6,7.81-.03,12.55,1,25.03,9.39,35.61-3.61,1.83-6.98,3.32-10.14,5.18-15.94,9.38-22.16,22.65-18.44,39.35,.96,4.29,2.23,8.09,7.86,8.8,29.85,3.77,58.67-.46,86.88-10.34,5.48-1.92,7.69-5.38,7.66-11.1-.05-8.86,.25-17.74,.74-26.59,.1-1.88,1.2-4.65,2.63-5.34,6.11-2.93,8.7-7.9,9.59-14.15,.61-4.22,1.08-8.46,1.62-12.72h11.16c.16,2.63,.23,4.88,.45,7.11,.8,8.15,1.81,16.15,10.89,19.87,.89,.37,1.59,2.23,1.65,3.44,.49,9.26,1.2,18.53,1.04,27.79-.11,6.41,2.45,9.96,8.31,11.95,27.85,9.47,56.26,13.92,85.7,10.12,4.29-.56,6.57-2.41,7.85-6.48,4.34-13.81,.91-27.12-10.4-36.24-5.37-4.32-11.62-7.54-16.68-10.75,2-4.63,4.82-9.11,5.84-13.97,1.55-7.4,1.69-15.08,2.8-22.58,.3-2,1.51-4.78,3.08-5.52,12.62-5.92,25.43-11.44,38.18-17.08l1.58,.15c-.19,.44-.38,.89-.57,1.34-8.97,20.53,4.16,44.3,26.4,47.33,2.79,10.26,6.22,20.51,18.88,22.26,12.12,1.69,19.3-6.04,25.14-14.96,18.08,5.66,30.88-.16,36.13-17.88,3.29-11.11,4.45-22.95,5.57-34.56,.5-5.25,1.38-9.63,4.33-14.19,3.39-5.25,6.03-11.29,7.61-17.35,2.91-11.11-2.59-21.95-13.03-26.47Zm-425.54,35.97l8.11,6.69-.48,.9-10.45-2.64,2.82-4.95Zm15.9,42.33c-2.99,5.76-8.45,10.29-13.02,15.17-2.59,2.76-5.55,3.69-8.64-2.03-1.86,5.83-2.78,10.47-4.76,14.61-5.62,11.81-15.77,16.48-26.93,5.65-3.69-3.58-7.01-7.55-11.34-12.24-.26,2.74-.39,4.22-.54,5.73-10.48,3.85-21.6-.81-25.35-11.04-3.05-8.32-5.91-16.73-8.28-25.25-.88-3.18-.14-6.81-.14-11.12l8.94,1.73c-1.25-2.49-2.06-4.43-3.16-6.19-3.72-5.92-7.72-11.67-11.3-17.68-3.76-6.31-5.7-13.21-3.38-20.46,.97-3,3.2-5.6,5.14-8.84,7.71,5.31,2.31,10.5,2.18,15.78,8.08,5.63,16.76,10.92,27.43,11.55,5.05,.3,10.14,.06,15.17,.56,7.85,.78,25.09-10.78,26.83-19.33l-9.54,4.23c-.11-2.21-.46-4.18-.24-6.08,.81-7.05,4.15-8.45,9.8-4.23,10.02,7.48,11.7,20.6,4.51,30.63-1.43,2-.59,5.6-.8,8.47,10.72-5.74,18.16,1.89,25.83,6.91,7.62,4.98,6.27,14.44,1.59,23.47Zm125.82,63.8c-.37,2.78-.83,6.64-2.72,7.87-3.05,1.98-7.23,2.31-10.98,3.16-12.46,2.81-24.83,6.44-37.46,8.04-11.09,1.41-22.48,.72-33.71,.34-1.42-.04-2.71-3.79-4.06-5.83-.16-.11-.31-.22-.47-.33,.19,.08,.39,.15,.58,.22,24.57,.27,48.42-4.69,72.35-9.15l-.3-2.44c-4.82,.72-53.63,7.87-61.21,8.96-2.02,.29-4.13,.32-6.16,.11-4.65-.5-6.12-2.31-5.48-7.73,1.66-14.05,11.23-19.52,22.51-24.64,13.29-6.04,27.19-3.61,40.83-4.49,7.11-.47,14.31,.73,21.48,.87,2.11,.04,4.24-1,7.42-1.82-1.5,8.52,.32,17.38-6.42,24.12,1.31,.9,3.9,2,3.8,2.74Zm9.71-40.33c-.82,2.05-4.3,4.16-6.67,4.28-18.06,.89-36.19,2.25-54.22,1.57-14.61-.56-15.17-2.32-16.76-17.54-.5-4.82-.76-9.66-1.09-13.91l82.07,11.45c-.94,4.35-1.46,9.52-3.33,14.15Zm122.68,24.64c7.25,4.26,11.18,10.98,12.3,19.5,.47,3.58-.08,5.67-3.74,6.29-2.41,.41-4.93,1.14-7.27,.8-11.09-1.62-22.1-3.8-33.21-5.3-6.13-.83-12.4-.72-18.6-1.04-.06,.84-.11,1.67-.17,2.51,8.8,.92,48.03,5.18,58.8,6.64,1.16,.15,2.09,2,3.12,3.06-1.35,.98-2.67,2.75-4.05,2.8-8.04,.26-16.13,.6-24.12,0-11.18-.84-22.45-1.75-33.39-3.99-9.59-1.97-18.79-5.82-29.22-9.18l4.22-10.37c-7.61-5.29-4.03-14.33-5.49-21.3,15,.56,29.18,1.33,43.36,1.49,5.74,.07,11.88-2.74,17.16-1.46,7.13,1.74,13.85,5.76,20.3,9.55Zm-13.21-22.27c-.14,.21-.26,.42-.36,.64-.33,.18-.65,.39-.94,.63-.68,.29-1.36,.58-2.05,.87-.72,.01-1.43,.01-2.15,.01-1.89,.35-3.78,.7-5.68,1.04-.26,.08-.53,.14-.8,.17-18.06-.28-36.12-.45-54.17-.88-6.09-.15-9.21-3.75-9.78-9.81-.31-3.26-1.08-6.48-1.57-9.32l81.02-11.11c1.18,8.87-.23,18.4-3.52,27.76Zm155.28-52.91c-1.8,3.65-4.44,6.89-6.7,10.31,.38,.38,.76,.75,1.14,1.12,2.45-1.59,4.85-3.27,7.38-4.73,.93-.54,2.43-1.05,3.17-.65,.73,.39,1.36,2.12,1.1,2.99-3.69,12.58-4.39,26.08-11.52,37.61-2.7,4.37-15.65,9.89-20.28,8-1.34-.54-2.32-2.91-2.69-4.61-.36-1.63,.29-3.48,.5-5.23-5.1,8.79-10.69,16.96-20.22,20.41-7.89,2.85-18.36-2.16-20.62-12.82-.74-3.53-1.95-6.97-2.54-9.02-3.96-.23-7.15,.56-8.96-.67-11.95-8.16-20.02-19.18-15.67-33.56,.68-2.28,1.77-5.33,3.57-6.23,6.49-3.24,13.32-5.86,20.15-8.34,1.04-.38,2.8,1.22,5.28,2.4,.19-1.87,.79-3.48,.4-4.79-1.34-4.44-3.25-8.7-4.53-13.15-3.71-12.86,2.45-21.92,16.59-24.02l1.7,11.98-8.21-1.9c.32,6.31,4.51,10.29,8.28,12.38,6.57,3.64,13.73,5.16,22.06,5.08,10.16-.09,19.29-1.57,28.06-5.88,4.37-2.15,8.07-5.65,12.46-8.81-5.29-3.15-5.62-6.89-1.59-13.64,2.46,4.65,6.24,6.73,6.58,13.27,.73,14.06-9.67,21.88-14.89,32.5Z"/>
      <path class="cls-2" d="M164.34,483.24q4.31-9.22-5.23-14.01c-29.14-14.54-55.31-32.89-74.85-59.43-5.23-7.1-10.71-14.52-13.65-22.67s-2.92-16.83-3.51-25.37c-.81-11.72-.81-23.49-1.49-35.22-.21-3.61,.55-5.58,4.14-6.98,8.77-3.43,17.35-7.34,26.41-11.22,5.45,13.11,13.28,24.11,24.71,32.13,28.81,20.2,59.16,19.23,89.78,5.19,25.51-11.7,43.71-31.23,56.01-56.34,.8-1.63,1.58-3.27,2.74-5.66,1.09,2,1.86,3.32,2.55,4.7,18.91,37.82,48.37,61.77,90.96,66.89,30.45,3.66,62.7-10.82,77.67-41.72,.79-1.63,1.63-3.25,2.55-5.07,9.34,3.99,18.46,7.7,27.37,11.87,1.48,.69,2.91,3.45,2.85,5.2-.64,18.34-1.09,36.71-2.74,54.97-.5,5.58-3.99,11.17-7,16.22-19.11,32.07-47.41,53.86-80.03,70.71-2.75,1.42-5.53,2.76-8.29,4.16-.92,.47-2.24,.79-2.62,1.56-5.69,11.54-17.75,11.92-27.7,14.9-40.12,12.02-81.24,13.27-122.49,8.03-17.49-2.22-34.7-6.68-52.01-10.26-2.11-.44-4.06-1.69-6.09-2.57Zm54.51-103.84c1.32,.44,2.61,1.09,3.96,1.28,10.8,1.47,21.57,3.35,32.42,4.16,28.77,2.16,57.33,0,84.98-8.32,9.15-2.75,17.38-6.6,26.84-2.07,1.44,.69,3.48,.1,6.71,.1-12.45-10.79-25.88-9.48-39.38-7.99l8.33,2.31c-40.79,11.07-82.1,12.44-123.86,10.54ZM89.78,255.26c2.6-1.18,5.38-3.78,6.39-6.39,6.95-18,17.06-33.79,31.05-47.1,33.91-32.27,79.05-37.05,116.64-12.31,10.64,7,19.01,16.18,25.49,27.85,1-1.35,1.63-2.09,2.14-2.91,22.93-36.68,71.61-51.2,110.71-32.69,29.41,13.93,48.99,36.97,60.56,67.12,.65,1.69,1.18,4.23,2.45,4.76,8.39,3.54,16.97,6.65,26.3,10.2-.46-3.77-.66-6.41-1.13-9-1.68-9.12-3.02-18.32-5.26-27.31-12.18-48.89-35.29-91.37-74.8-123.63-9.67-7.9-20.35-14.85-31.35-20.76s-22.63-9.88-34.11-14.45c-3.98-1.58-8.3-2.3-12.42-3.55-4.07-1.24-7.9-2.02-9.16,2.33-1.45-1.69-2.68-4.56-4.37-4.88-20.38-3.75-40.77-3.07-61.07,.23l-1.4,5.66-.35-1.99c-2.56-.55-5.2-1.78-7.67-1.51-4.04,.45-8.03,1.68-11.93,2.92-6.59,2.09-12.99,4.83-19.41,7.29-22.55,8.63-42.46,21.78-59.83,38.65-33.74,32.75-54.06,72.83-64.33,118.3-2.29,10.13-3.74,20.44-5.78,31.77,8.55-3.18,15.78-5.52,22.67-8.63Zm179.09-15.52c1.12-2.06,1.74-2.73,1.86-3.47,5.03-30.8,36.58-51.94,67.74-56.22,28.99-3.98,50.66,9.04,70.12,27.92,17.66,17.13,29.71,37.4,32.31,62.35,5.02,48.15-33.06,84.57-80.99,77.64-41.26-5.96-77.38-38.88-87.67-79.88-.53-2.12-1.15-4.21-2.92-6.53-1.15,3.35-2.29,6.7-3.47,10.04-14.52,41.4-42.05,68.42-86.07,76.14-40.32,7.07-76.35-19.12-81.57-59.43-3.39-26.18,5.97-49.02,22.06-69.33,9.44-11.92,20.71-21.9,33.87-29.47,30.22-17.38,59.13-11.49,86.75,6.24,15.47,9.93,24.7,24.53,27.97,44.01Zm-13.39,12.57c-.89-5.25-1.26-10.66-2.76-15.74-8.04-27.27-38.52-46.36-68.82-43.4-38.9,3.81-74.56,43.05-74.72,82.23-.12,30.03,21.16,55.47,49.85,59.57,46.88,6.71,95.34-35.04,96.45-82.67Zm28.6-.48c.29,3.49,.17,7.06,.93,10.44,8.37,37.08,30.57,61.64,67.41,71.45,35.98,9.58,69.38-11.2,76.3-46.65,3.71-19.03-1.86-36.31-11.63-52.47-16.26-26.87-48.4-48.33-84.07-39.65-28.65,6.97-48.68,29.66-48.93,56.88Zm177.56,203.96c-16.01,20.23-35.47,36.71-56.28,51.75-2.04,1.47-4.3,4.32-4.35,6.57-.29,13.17-.43,26.39,.3,39.54s10.04,21.87,23.22,21.27c7.83-.36,15.72-2.79,23.25-5.3,6.33-2.11,13.12-5.03,9.97-14.97,2.63,3.84,4.4,7.39,5.42,11.14,7.55,27.78,12.1,55.97,10.89,84.87-.16,3.73,.98,5.66,4.54,5.57,9.64-.23,19.28-.55,28.89-1.25,1.28-.09,3.29-2.56,3.4-4.04,.7-9.24,1.46-18.53,1.27-27.79-.63-30.04-5.75-59.44-14.11-88.25-8.93-30.8-18.22-61.5-27.25-91.92-2.53,3.57-5.62,8.37-9.15,12.82Zm-379.98,95.17c-.13,2.6-.73,5.28-.27,7.76,.48,2.58,1.29,6.06,3.17,7.25,9.72,6.19,20.36,9.84,32.14,9.11,10.57-.66,21.19-10.31,21.02-20.59-.21-12.76,.27-25.54,.72-38.3,.15-4.26-1.64-6.66-4.98-9.05-25.25-18.13-48.65-38.18-65.52-64.81-.13-.21-.71-.14-.2-.06-4.78,17.32-9.5,34.55-14.29,51.75-6.56,23.59-13.86,47-19.59,70.79-6.74,27.99-8.66,56.54-5.68,85.28,.18,1.77,1.97,4.74,3.19,4.83,9.8,.72,19.64,.97,29.47,1.18,3.29,.07,4.25-1.76,4.32-5.19,.28-13.37-.08-26.91,1.88-40.07,3.01-20.25,7.73-40.24,11.72-60.34l2.89,.47Z"/>
      <path class="cls-1" d="M169.99,330.11c-37.1-.08-62.45-32.83-52.91-69.35,7.52-28.82,25.94-49.59,53.48-59.8,23.07-8.55,44.87-1.16,62.93,14.93,16.84,15,19.11,34.31,12.86,54.98-10.31,34.08-43.04,59.31-76.35,59.24Zm28.34-44.29c15.98-.14,29.47-12.77,29.36-27.5s-12.9-27.31-26.82-26.98c-15.79,.37-28.99,13.7-28.72,29s11.47,25.61,26.19,25.49Zm170.93,44.29c-39.87-.19-78.08-37.62-78.95-77.34-.48-21.97,13.49-41.09,36.62-49.87,22.05-8.37,42.67-6.59,61.64,8.47,20.56,16.32,35.19,36.1,35.85,63.33,.78,31.92-23.2,55.57-55.16,55.42Zm-27.38-44.3c14.64-.05,25.87-11.36,25.72-25.91-.16-15.49-13.5-28.56-29.15-28.56-14.06,0-26.49,12.98-26.27,27.44s13.67,27.09,29.7,27.03Z"/>
      <path class="cls-3" d="M144.59,515.7c7.54,3.93,8.19-1.04,9.51-5.73,1.87-6.66,4.16-13.21,5.93-18.73,73.1,21.1,144.43,23.43,216.71-5.79,2.66,8.11,5.6,16.53,8.18,25.07,1.47,4.85,2.45,9.7,10.13,4.03-.52,4.86-1.02,8.22-1.21,11.59-2.08,36.57,3.37,71.61,22.51,103.46,4.51,7.5,10.61,14.14,16.56,20.65,3.63,3.97,4.03,6.5-.37,10-30.32,24.13-65.13,37.37-103.14,43.12-27.02,4.09-54.22,4.64-81.41,3.54-36.46-1.47-72.33-6.93-105.23-23.84-12.93-6.65-24.66-15.62-36.97-23.49-3.6-2.3-4.27-4.79-.97-7.91,23.68-22.39,34.34-51.09,38.31-82.41,1.95-15.41,1.07-31.18,1.46-46.78,.05-1.83,0-3.67,0-6.78Zm124.6,39.33v-.15c-16.07,0-32.15,.25-48.22-.12-6.69-.15-9.91,1.98-11.08,8.85-2.9,17.02-2.66,34.01-.36,50.99,.96,7.11,2.77,14.12,4.53,21.09,1.46,5.78,4.71,9.2,11.36,10.17,29.38,4.25,58.67,3.98,88.06,.09,7.21-.95,10.73-4.98,11.8-11.26,2.24-13.15,4.96-26.36,5.5-39.62,.47-11.58-1.71-23.28-2.84-34.91-.39-4.02-2.92-5.22-6.83-5.18-17.31,.15-34.62,.06-51.93,.06Zm190,14.07c-18.28,12.67-36.06,17.52-55.72,3.51,5.42,28.18,14.61,52.89,34.61,73.05,6.78-7.91,14.11-13.1,26.26-10.4l-5.14-66.16Zm-358.43,76.61c19.98-20.38,29.67-44.74,34.46-72.86-19.65,13.78-37.36,8.71-55.52-3.63l-4.93,65.33c11.78-1.16,19.8,2.62,25.99,11.16Zm-30.41-248c20.07,37.55,52.85,60.71,88.77,78.71l-13.1,32.57c-.15-.06-1.38-.24-2.24-.91-23.21-17.81-46.35-35.67-64.63-58.93-8.53-10.86-13.29-22.43-10.59-36.56,.89-4.67,.14-9.66,.14-14.5l1.64-.38Zm68.82,96.43c4.85,.06,9.15-4.87,9.19-10.52,.04-6.28-4.21-11.45-9.59-11.66-4.99-.19-9.55,4.49-9.74,9.99-.2,5.76,5.09,12.11,10.14,12.18Zm331.27-96.82c0,11.01,1.74,22.39-.56,32.89-1.79,8.13-7.94,15.69-13.37,22.56-15.06,19.06-34.05,34.03-53.01,48.96-3.49,2.75-7.11,5.35-10.31,7.76l-12.8-31.64c15.97-10.73,33.46-21.48,49.8-33.76,16.55-12.44,29.05-28.82,40.26-46.76Zm-60.7,84.57c-.12-5.71-4.28-10.04-9.53-9.92-5.39,.12-10.01,5.78-9.85,12.06,.13,5.25,4.96,10.33,9.61,10.11,5.23-.25,9.91-6.11,9.77-12.25Zm-235.47,240.07c1.59,15.21,2.15,16.98,16.76,17.53,18.03,.68,36.16-.67,54.22-1.57,2.37-.12,5.85-2.23,6.67-4.28,1.86-4.63,2.39-9.8,3.33-14.16l-82.07-11.45c.33,4.25,.59,9.1,1.09,13.91Zm183.77,16.21h-2.22l.48-5.17,3.03-.91-.53-1.08-2.43,2.06-.48,5.1-5.68,1.04-.41-2.79-.65,.08,.25,2.88c-18.06-.28-36.12-.46-54.17-.88-6.09-.14-9.21-3.75-9.78-9.81-.31-3.26-1.08-6.48-1.57-9.32l81.02-11.1c1.18,8.87-.23,18.4-3.52,27.75l-.42,.21,.06,.44c-.33,.18-.64,.39-.94,.63l-2.05,.88Zm-4.65-4.43l-.24-1.37-2.19,1.08,.21,.6,2.21-.31Zm-134.18-95.4c-4.55-29.53-6.76-68.04-4.7-77.21h110.05c0,10.25,.51,21.5-.13,32.69-.8,13.93-2.47,27.82-4,41.7-.14,1.28-1.9,3.27-3.1,3.42-32.57,4.2-65.15,4.89-98.12-.6Zm29.3-62.69c-10.19,5.43-14.66,14.43-14.05,25.42,.89,16,15.13,29,32.17,30.47,16.16,1.4,32.13-8.98,36.49-23.71,5.32-17.97-9.25-38.42-28.52-39.6-9.46-.58-19.09-.83-26.14,7.46l.05-.04Zm17.4,.66c3.39-3.43,5.81,.53,8.67,1.13l1.85,.92,1.89,1.5c.72,.48,3.18,2.11,3.68,2.46,4.6,3.15,9.1,6.45,13.6,9.73,3.13,2.28,3.1,4.97,.89,7.87-.3,.78-.61,1.57-.93,2.35l-1.52,.26-10.73,11.68c-3.08,2.99-6.26,5.88-9.22,8.99s-6.15,3.36-9.01,.33c-8.54-9.04-16.88-18.26-25.36-27.48l4.32-5.27,2.12-1.31,1.5-1.2,3.59-1.94c.86-.58,10.64-7.25,14.66-10.01Zm3.25,33.27c8.33,.38,13.76-4.24,13.9-11.84,.13-6.72-5.42-11.95-12.91-12.17-7.94-.23-13.79,4.53-14.08,11.47-.33,7.8,4.2,12.13,13.09,12.54Z"/>
    </g>
  </g>
</svg>